:SAMPLES-PER-SECOND 30
:FULLY-SPECIFIED
:DEGREES
103
root  16.39759935 36.81688985 -5.942288722 -14.17679977 -55.90250015 11.04349995
lowerback  8.807970047 4.200749874 -1.138450027
upperback  3.951889992 5.376969814 -1.972579956
thorax  -0.7383329868 2.658430099 -1.891559958
lowerneck  2.69630003 7.997310162 -8.126199722
upperneck  15.83040047 10.06879997 5.123060226
head  3.626019955 4.674469948 3.056210041
lclavicle  0 -9.442270133e-015 7.951389973e-016
lhumerus  9.802499771 -4.014959812 73.46130371
lradius  2.588252004e-031 -2.402039883e-031 137.1369934
lwrist  -7.062250077e-031 -1.765562519e-031 7.599199772
lhand  -1.496451383e-031 -27.76390076 20.11240005
lfingers  90 7.125020027 -90
lthumb  89.89689403 5.08795885 91.16245106
rclavicle  0 -9.442270133e-015 7.951389973e-016
rhumerus  7.103980064 17.90200043 -79.39379883
rradius  -2.64330804e-031 2.341317287e-031 138.4669952
rwrist  1.412450015e-030 -0 -16.16489983
rhand  -7.920061211e-032 -33.2840004 9.303460121
rfingers  -90 -7.125020027 -90
rthumb  -92.93752616 -24.25625642 -97.11982154
rfemur  -10.67800045 4.053329945 -3.334579945
rtibia  -0 0 65.46440125
rfoot  -0 -23.38019943 -10.0546999
rtoes  5.373923086 19.29304026 -105.8922705
lfemur  -18.32939911 -7.916269779 -3.900629997
ltibia  -0 0 49.35010147
lfoot  4.611546804e-032 -16.83510017 -4.449230194
ltoes  -4.250644065 -19.5611806 -102.515957
104
root  16.38524514 37.11533434 -6.060800027 -13.54189968 -56.41540146 10.74909973
lowerback  8.585129738 4.293230057 -0.8790969849
upperback  3.836810112 5.52959013 -1.894330025
thorax  -0.7152400017 2.738850117 -1.95510006
lowerneck  2.304650068 7.980490208 -8.008179665
upperneck  15.73019981 10.06219959 5.341020107
head  3.650330067 4.696909904 3.117269993
lclavicle  0 -9.442270133e-015 7.951389973e-016
lhumerus  10.15400028 -4.089479923 72.86499786
lradius  2.605706965e-031 -2.38309363e-031 137.5549927
lwrist  -1.412450015e-030 -1.765562519e-031 6.995490074
lhand  -1.496451383e-031 -27.76390076 20.11240005
lfingers  90 7.125020027 -90
lthumb  89.89689403 5.08795885 91.16245106
rclavicle  0 -9.442270133e-015 7.951389973e-016
rhumerus  6.559840202 18.1413002 -79.74520111
rradius  -2.652075576e-031 2.331381388e-031 138.6820068
rwrist  0 -0 -16.2840004
rhand  -7.920061211e-032 -33.2840004 9.303460121
rfingers  -90 -7.125020027 -90
rthumb  -92.93752616 -24.25625642 -97.11982154
rfemur  -10.4034996 4.676350117 -2.826620102
rtibia  -0 0 63.57400131
rfoot  -0 -22.9321003 -9.679479599
rtoes  5.373923086 19.29304026 -105.8922705
lfemur  -17.9279995 -8.617440224 -3.613149881
ltibia  -0 0 47.88899994
lfoot  4.586259307e-032 -15.75749969 -3.166330099
ltoes  -4.250644065 -19.5611806 -102.515957
105
root  16.37100009 37.43155472 -6.190510998 -12.56770039 -56.98320007 10.20769978
lowerback  8.349599838 4.4134202 -0.4021950066
upperback  3.671740055 5.73567009 -1.809290051
thorax  -0.7135019898 2.848589897 -2.136320114
lowerneck  1.72349 7.896830082 -7.957620144
upperneck  15.7826004 9.980449677 5.563640118
head  3.753149986 4.677440166 3.204050064
lclavicle  0 -9.442270133e-015 7.951389973e-016
lhumerus  10.47469997 -4.278729916 72.39199829
lradius  2.628586449e-031 -2.357833183e-031 138.1080017
lwrist  -7.062250077e-031 -1.765562519e-031 6.429890156
lhand  -1.496451383e-031 -27.76390076 20.11240005
lfingers  90 7.125020027 -90
lthumb  89.89689403 5.08795885 91.16245106
rclavicle  0 -9.442270133e-015 7.951389973e-016
rhumerus  6.104959965 18.21800041 -79.90899658
rradius  -2.662749163e-031 2.319183247e-031 138.9450073
rwrist  1.412450015e-030 -0 -16.1364994
rhand  -7.920061211e-032 -33.2840004 9.303460121
rfingers  -90 -7.125020027 -90
rthumb  -92.93752616 -24.25625642 -97.11982154
rfemur  -10.19709969 5.443190098 -2.1256001
rtibia  -0 0 61.52510071
rfoot  -0 -22.35140038 -9.461500168
rtoes  5.373923086 19.29304026 -105.8922705
lfemur  -17.65469933 -9.418809891 -3.163539886
ltibia  -0 0 46.38069916
lfoot  4.559427868e-032 -14.51469994 -1.808670044
ltoes  -4.250644065 -19.5611806 -102.515957
106
root  16.353867 37.76066697 -6.331777948 -11.31550026 -57.61610031 9.472740173
lowerback  8.15501976 4.513999939 0.1153419986
upperback  3.323319912 5.917280197 -1.730599999
thorax  -0.916876018 2.944509983 -2.35649991
lowerneck  1.52294004 7.844279766 -7.737440109
upperneck  15.74969959 9.916139603 5.640039921
head  3.785099983 4.665609837 3.200710058
lclavicle  0 -9.442270133e-015 7.951389973e-016
lhumerus  10.55000019 -4.303410053 71.86779785
lradius  2.652115933e-031 -2.331335479e-031 138.6829987
lwrist  -7.062250077e-031 -1.765562519e-031 6.113460064
lhand  -1.496451383e-031 -27.76390076 20.11240005
lfingers  90 7.125020027 -90
lthumb  89.89689403 5.08795885 91.16245106
rclavicle  0 -9.442270133e-015 7.951389973e-016
rhumerus  5.502689838 18.35950089 -80.10520172
rradius  -2.673688551e-031 2.306563151e-031 139.2160034
rwrist  7.062250077e-031 -0 -16.01460075
rhand  -7.920061211e-032 -33.2840004 9.303460121
rfingers  -90 -7.125020027 -90
rthumb  -92.93752616 -24.25625642 -97.11982154
rfemur  -10.06029987 6.407710075 -1.317899942
rtibia  -0 0 59.37939835
rfoot  -0 -21.7798996 -9.035189629
rtoes  5.373923086 19.29304026 -105.8922705
lfemur  -17.46439934 -10.28759956 -2.59671998
ltibia  -0 0 44.84830093
lfoot  4.817748177e-032 -13.23550034 -0.1987120062
ltoes  -4.250644065 -19.5611806 -102.515957
107
root  16.33922246 38.07133352 -6.472533519 -10.60830021 -58.22050095 9.348640442
lowerback  7.966790199 4.574110031 0.2454349995
upperback  2.965630054 6.012249947 -1.740329981
thorax  -1.164759994 2.991739988 -2.448339939
lowerneck  1.560989976 7.860990047 -7.446420193
upperneck  15.58069992 9.940580368 5.56498003
head  3.744529963 4.693369865 3.125960112
lclavicle  0 -9.442270133e-015 7.951389973e-016
lhumerus  10.46100044 -4.064430237 71.27410126
lradius  2.676745901e-031 -2.30301442e-031 139.2920074
lwrist  -7.062250077e-031 -0 6.123720169
lhand  -1.496451383e-031 -27.76390076 20.11240005
lfingers  90 7.125020027 -90
lthumb  89.89689403 5.08795885 91.16245106
rclavicle  0 -9.442270133e-015 7.951389973e-016
rhumerus  4.905389786 18.67760086 -80.29940033
rradius  -2.684488097e-031 2.293985112e-031 139.4850006
rwrist  7.062250077e-031 1.765562519e-031 -16.00209999
rhand  -7.920061211e-032 -33.2840004 9.303460121
rfingers  -90 -7.125020027 -90
rthumb  -92.93752616 -24.25625642 -97.11982154
rfemur  -9.877659798 7.475110054 -0.9340729713
rtibia  -0 0 57.23089981
rfoot  -0 -21.29140091 -8.670900345
rtoes  5.373923086 19.29304026 -105.8922705
lfemur  -17.18939972 -11.13549995 -2.443459988
ltibia  -0 0 43.3362999
lfoot  5.642063355e-032 -12.06760025 1.510229945
ltoes  -4.250644065 -19.5611806 -102.515957
108
root  16.32668953 38.36155689 -6.615911319 -10.21339989 -58.84080124 9.590749741
lowerback  7.703569889 4.606309891 0.1640920043
upperback  2.690850019 6.053480148 -1.768030047
thorax  -1.307420015 3.011369944 -2.426789999
lowerneck  1.319599986 7.941450119 -7.176970005
upperneck  15.57619953 10.07940006 5.430699825
head  3.795150042 4.772659779 3.056159973
lclavicle  0 -9.442270133e-015 7.951389973e-016
lhumerus  10.39210033 -3.949280024 70.62030029
lradius  2.711247754e-031 -2.262295218e-031 140.1580048
lwrist  -7.062250077e-031 -1.765562519e-031 6.295700073
lhand  -1.496451383e-031 -27.76390076 20.11240005
lfingers  90 7.125020027 -90
lthumb  89.89689403 5.08795885 91.16245106
rclavicle  0 -9.442270133e-015 7.951389973e-016
rhumerus  4.536310196 19.0739994 -80.51039886
rradius  -2.691761656e-031 2.285445957e-031 139.6670074
rwrist  7.062250077e-031 -0 -15.45820045
rhand  -7.920061211e-032 -33.2840004 9.303460121
rfingers  -90 -7.125020027 -90
rthumb  -92.93752616 -24.25625642 -97.11982154
rfemur  -9.73044014 8.685210228 -0.785089016
rtibia  -0 0 55.1432991
rfoot  -0 -21.0291996 -8.024279594
rtoes  5.373923086 19.29304026 -105.8922705
lfemur  -16.90480042 -11.74820042 -2.5286901
ltibia  -0 0 41.89189911
lfoot  4.497468669e-032 -11.06200027 3.110650063
ltoes  -4.250644065 -19.5611806 -102.515957
109
root  16.32140002 38.635332 -6.770911179 -9.098549843 -59.46080017 9.099450111
lowerback  7.350689888 4.500919819 0.3546650112
upperback  2.502810001 5.935599804 -1.675109982
thorax  -1.30250001 2.953949928 -2.405550003
lowerneck  0.6079990268 8.086790085 -6.895679951
upperneck  15.69299984 10.35079956 5.220809937
head  3.957590103 4.916110039 2.990210056
lclavicle  0 -9.442270133e-015 7.951389973e-016
lhumerus  10.50759983 -3.644360065 69.81030273
lradius  2.749543928e-031 -2.215592973e-031 141.1380005
lwrist  -1.412450015e-030 -0 6.510449886
lhand  -1.496451383e-031 -27.76390076 20.11240005
lfingers  90 7.125020027 -90
lthumb  89.89689403 5.08795885 91.16245106
rclavicle  0 -9.442270133e-015 7.951389973e-016
rhumerus  4.471779823 19.74740028 -80.75679779
rradius  -2.700318579e-031 2.275329341e-031 139.8820038
rwrist  7.062250077e-031 -0 -14.95049953
rhand  -7.920061211e-032 -33.2840004 9.303460121
rfingers  -90 -7.125020027 -90
rthumb  -92.93752616 -24.25625642 -97.11982154
rfemur  -9.741350174 9.933480263 -0.2294930071
rtibia  -0 0 53.15069962
rfoot  -0 -20.95219994 -7.198900223
rtoes  5.373923086 19.29304026 -105.8922705
lfemur  -16.81489944 -12.08129978 -2.180140018
ltibia  -0 0 40.58100128
lfoot  4.484193968e-032 -10.15789986 4.50369978
ltoes  -4.250644065 -19.5611806 -102.515957
